#!OML:ASF C:\ViconDB\ViconDB\414\Spring2016\041811\Spring2016.ASF
:FULLY-SPECIFIED
:DEGREES
304
root 10.3558 18.0425 -32.2795 -181.59 5.12541 -174.686
lowerback 0.832895 2.9948 1.44123
upperback 2.48766 4.0594 1.03251
thorax 2.10939 2.0817 0.297409
lowerneck -10.2767 -4.18699 -10.0369
upperneck 17.1688 -7.62588 14.3765
head 7.90011 -3.41669 5.65985
rclavicle -9.65845e-014 -3.97569e-016
rhumerus -27.5702 -13.2931 -86.7646
rradius 38.1872
rwrist 34.9476
rhand -35.1723 -14.7324
rfingers 7.12502
rthumb -8.31106 -44.549
lclavicle -9.65845e-014 -3.97569e-016
lhumerus -43.4291 3.29778 87.1996
lradius 25.1114
lwrist -34.8132
lhand -26.9213 14.7189
lfingers 7.12502
lthumb -0.344034 44.6984
rfemur 146.716 29.4835 -173.81
rtibia 16.4454
rfoot -34.1172 -46.9482
rtoes 2.09917e-013
lfemur -25.9388 -2.60277 -10.523
ltibia 29.2897
lfoot -8.64984 9.26245
ltoes 2.78299e-014
305
root 10.3315 18.0501 -32.4806 -181.584 4.87806 -174.748
lowerback 0.814388 2.94107 1.26001
upperback 2.39402 3.98328 0.946994
thorax 2.01653 2.03752 0.306931
lowerneck -10.3354 -4.26338 -10.0239
upperneck 17.1865 -7.71388 14.3088
head 7.92589 -3.45843 5.62339
rclavicle 1.01629e-014 3.18055e-015
rhumerus -28.3178 -13.8439 -86.6034
rradius 38.1123
rwrist 34.9385
rhand -35.2092 -14.8317
rfingers 7.12502
rthumb -8.34671 -44.6468
lclavicle 1.01629e-014 3.18055e-015
lhumerus -43.1846 3.07609 87.215
lradius 24.7023
lwrist -35.2282
lhand -27.1812 14.6007
lfingers 7.12502
lthumb -0.595118 44.5796
rfemur 146.668 27.8126 -173.475
rtibia 16.1719
rfoot -31.6838 -48.0483
rtoes 6.99722e-014
lfemur -25.9394 -2.20024 -10.8636
ltibia 30.232
lfoot -8.86109 8.63424
ltoes -2.94201e-014
306
root 10.3025 18.0583 -32.6786 -181.434 4.56461 -174.701
lowerback 0.617101 2.85884 1.22241
upperback 2.29936 3.86438 0.866525
thorax 2.03226 1.97448 0.252106
lowerneck -10.2167 -4.30544 -10.085
upperneck 16.9329 -7.77003 14.4878
head 7.83899 -3.48181 5.68618
rclavicle -1.09332e-014 1.19271e-015
rhumerus -29.0126 -14.6347 -86.4515
rradius 37.9762
rwrist 35.3007
rhand -35.1544 -14.6785
rfingers 7.12502
rthumb -8.29377 -44.4956
lclavicle -1.09332e-014 1.19271e-015
lhumerus -42.7698 2.95164 87.2211
lradius 24.2615
lwrist -35.4831
lhand -27.4372 14.7755
lfingers 7.12502
lthumb -0.84237 44.7536
rfemur 146.416 26.1802 -172.922
rtibia 16.589
rfoot -29.1724 -49.8093
rtoes 0
lfemur -26.0892 -1.96444 -11.0684
ltibia 31.223
lfoot -9.13569 7.95895
ltoes -1.35174e-014
307
root 10.276 18.0568 -32.8762 -181.464 4.33686 -174.698
lowerback 0.634309 2.74906 1.1136
upperback 2.20533 3.71503 0.799691
thorax 1.92248 1.89567 0.237874
lowerneck -9.95198 -4.45459 -10.8843
upperneck 16.6033 -8.08461 15.5836
head 7.80549 -3.62971 6.16811
rclavicle -6.82577e-014 9.54166e-015
rhumerus -29.8741 -15.1985 -86.3442
rradius 37.9555
rwrist 35.2871
rhand -35.1505 -14.6717
rfingers 7.12502
rthumb -8.29004 -44.489
lclavicle -6.82577e-014 9.54166e-015
lhumerus -42.4722 2.60693 87.3007
lradius 23.9016
lwrist -35.3057
lhand -27.4663 14.9853
lfingers 7.12502
lthumb -0.870482 44.9632
rfemur 145.556 24.8453 -172.673
rtibia 17.5761
rfoot -26.6349 -52.1521
rtoes 2.38542e-013
lfemur -25.9644 -1.50217 -11.3724
ltibia 32.1502
lfoot -9.26344 6.99408
ltoes -1.19271e-015
308
root 10.2484 18.0399 -33.0686 -181.44 3.9801 -174.658
lowerback 0.546467 2.64895 1.10092
upperback 2.13291 3.57673 0.719258
thorax 1.90093 1.8246 0.163327
lowerneck -9.89606 -4.49174 -10.8216
upperneck 16.5457 -8.14328 15.5717
head 7.78234 -3.6585 6.14528
rclavicle -2.37796e-014 4.77083e-015
rhumerus -30.6961 -16.0104 -86.1758
rradius 37.8576
rwrist 35.6101
rhand -35.0187 -14.6428
rfingers 7.12502
rthumb -8.16285 -44.4652
lclavicle -2.37796e-014 4.77083e-015
lhumerus -42.1384 2.28892 87.3156
lradius 23.5546
lwrist -36.0114
lhand -27.7183 15.2963
lfingers 7.12502
lthumb -1.1138 45.2732
rfemur 144.474 23.5932 -172.298
rtibia 19.1064
rfoot -24 -54.9339
rtoes -3.81667e-014
lfemur -25.9744 -1.36593 -11.5971
ltibia 33.0117
lfoot -9.54924 6.32523
ltoes 3.18055e-014
309
root 10.2176 18.0462 -33.259 -181.427 3.63963 -174.634
lowerback 0.495025 2.50009 1.0822
upperback 2.08117 3.3751 0.656191
thorax 1.87799 1.72234 0.107679
lowerneck -10.0288 -4.49375 -10.771
upperneck 16.6108 -8.13842 15.5176
head 7.82308 -3.64957 6.11758
rclavicle 5.39203e-015 7.95139e-015
rhumerus -31.4888 -16.8096 -86
rradius 37.755
rwrist 35.918
rhand -35.0271 -14.6304
rfingers 7.12502
rthumb -8.17093 -44.4524
lclavicle 5.39203e-015 7.95139e-015
lhumerus -41.6203 2.26903 87.2221
lradius 23.0922
lwrist -36.404
lhand -27.726 15.1951
lfingers 7.12502
lthumb -1.12125 45.1719
rfemur 143.107 22.9384 -172.216
rtibia 21.0149
rfoot -22.7296 -57.6055
rtoes -5.08889e-014
lfemur -25.8086 -1.38316 -11.828
ltibia 33.7829
lfoot -10.1607 5.85985
ltoes -4.77083e-014
310
root 10.1833 18.0564 -33.4475 -181.432 3.44683 -174.541
lowerback 0.523594 2.44291 1.23661
upperback 1.99708 3.29644 0.61609
thorax 1.78616 1.684 -0.0241181
lowerneck -10.1445 -4.54185 -10.7875
upperneck 16.7732 -8.19826 15.4274
head 7.9029 -3.67871 6.08375
rclavicle -2.3059e-014 4.77083e-015
rhumerus -32.2786 -17.3993 -85.7366
rradius 37.5384
rwrist 36.2607
rhand -34.882 -14.658
rfingers 7.12502
rthumb -8.03092 -44.4855
lclavicle -2.3059e-014 4.77083e-015
lhumerus -41.1681 2.25918 87.1372
lradius 22.6052
lwrist -37.3883
lhand -27.8353 15.1454
lfingers 7.12502
lthumb -1.22685 45.1216
rfemur 141.53 22.0697 -171.988
rtibia 23.4525
rfoot -20.2268 -60.69
rtoes -3.18055e-015
lfemur -25.4537 -1.61011 -11.9347
ltibia 34.3476
lfoot -10.8323 5.72866
ltoes -8.34896e-015
311
root 10.1488 18.0612 -33.6329 -181.443 3.28317 -174.425
lowerback 0.537353 2.35732 1.31743
upperback 1.93991 3.18072 0.638551
thorax 1.72167 1.62615 -0.0499019
lowerneck -10.3252 -4.549 -10.7263
upperneck 16.9606 -8.19289 15.2641
head 7.98705 -3.67332 6.01801
rclavicle -1.54058e-015 -3.18055e-015
rhumerus -33.0747 -18.1712 -85.3756
rradius 37.3011
rwrist 36.7857
rhand -34.9564 -14.6178
rfingers 7.12502
rthumb -8.10273 -44.4424
lclavicle -1.54058e-015 -3.18055e-015
lhumerus -40.6324 2.05938 87.2688
lradius 22.2478
lwrist -37.655
lhand -27.9941 15.5363
lfingers 7.12502
lthumb -1.38026 45.5115
rfemur 139.779 21.4241 -171.787
rtibia 26.0462
rfoot -15.8435 -64.0809
rtoes 2.44903e-013
lfemur -25.0142 -1.67598 -12.0414
ltibia 34.7254
lfoot -11.4913 5.45548
ltoes -8.8658e-014
312
root 10.1171 18.0914 -33.8142 -181.43 3.12176 -174.353
lowerback 0.61444 2.24409 1.32672
upperback 1.86879 3.02968 0.66278
thorax 1.60283 1.54915 -0.0376019
lowerneck -10.4831 -4.53072 -10.7594
upperneck 17.0652 -8.1522 15.2335
head 8.04463 -3.64936 6.0182
rclavicle -9.39258e-015 1.27222e-014
rhumerus -33.7976 -18.4845 -85.2446
rradius 37.1913
rwrist 36.3049
rhand -34.9253 -14.7516
rfingers 7.12502
rthumb -8.07272 -44.5775
lclavicle -9.39258e-015 1.27222e-014
lhumerus -40.1703 2.02335 87.323
lradius 22.0089
lwrist -37.8138
lhand -28.0709 15.4878
lfingers 7.12502
lthumb -1.45436 45.4626
rfemur 138.046 20.8979 -171.668
rtibia 28.915
rfoot -15.2342 -67.2408
rtoes 5.725e-014
lfemur -24.4398 -1.47666 -12.2021
ltibia 34.9073
lfoot -12.207 4.87379
ltoes 2.46493e-014
313
root 10.0867 18.1103 -33.993 -181.445 2.94165 -174.344
lowerback 0.724089 2.12664 1.31382
upperback 1.78864 2.8734 0.613362
thorax 1.45923 1.46913 -0.0892999
lowerneck -10.6219 -4.49512 -10.6428
upperneck 17.1972 -8.11738 15.1542
head 8.1003 -3.62585 5.97493
rclavicle 1.27719e-014 6.36111e-015
rhumerus -34.532 -19.1833 -85.0077
rradius 36.9347
rwrist 36.6965
rhand -34.5706 -14.392
rfingers 7.12502
rthumb -7.73036 -44.2307
lclavicle 1.27719e-014 6.36111e-015
lhumerus -39.7619 2.10258 87.1009
lradius 21.8255
lwrist -38.8281
lhand -28.2092 15.6184
lfingers 7.12502
lthumb -1.58797 45.5922
rfemur 136.182 20.4957 -171.628
rtibia 31.8638
rfoot -10.422 -70.5917
rtoes 5.40694e-014
lfemur -23.7974 -1.4197 -12.4085
ltibia 34.9589
lfoot -12.6208 4.52117
ltoes -1.64991e-014
314
root 10.0466 18.1359 -34.1545 -181.318 2.91007 -174.472
lowerback 0.94344 2.04297 1.31665
upperback 1.61207 2.76231 0.535136
thorax 1.1579 1.40969 -0.185188
lowerneck -10.7557 -4.45237 -10.5645
upperneck 17.3093 -8.02324 14.9563
head 8.13648 -3.58122 5.90393
rclavicle 4.50744e-014 1.51076e-014
rhumerus -35.2615 -19.7257 -84.7275
rradius 36.6515
rwrist 36.8744
rhand -34.6989 -14.6665
rfingers 7.12502
rthumb -7.85414 -44.5006
lclavicle 4.50744e-014 1.51076e-014
lhumerus -39.3301 1.88046 87.2134
lradius 21.7068
lwrist -38.7418
lhand -28.4155 15.7606
lfingers 7.12502
lthumb -1.78725 45.7329
rfemur 134.41 20.1653 -171.673
rtibia 35.3018
rfoot -3.1279 -73.248
rtoes -3.65764e-014
lfemur -23.0504 -1.10929 -12.7875
ltibia 34.4063
lfoot -12.8927 4.17813
ltoes -6.10269e-014
